<svg width="44" height="44" viewBox="0 0 44 44" fill="none" xmlns="http://www.w3.org/2000/svg">
<g clip-path="url(#clip0_222_2329)">
<path d="M21.9992 0C9.86884 0 0 9.86729 0 21.9977C0 34.1296 9.86884 44 21.9992 44C34.1296 44 43.9984 34.1296 43.9984 21.9977C43.9984 9.86729 34.1296 0 21.9992 0ZM21.9992 42.7241C10.572 42.7241 1.2759 33.4265 1.2759 21.9961C1.2759 10.5704 10.572 1.27435 21.9992 1.27435C33.4265 1.27435 42.7225 10.5704 42.7225 21.9961C42.7241 33.4265 33.4265 42.7241 21.9992 42.7241ZM25.6515 20.073C27.0407 19.5049 27.8851 18.6294 28.4377 17.9651C29.4948 16.7497 29.9278 15.2581 29.9278 13.8487C29.9278 12.7094 29.6143 10.4354 27.6151 8.86923C26.2445 7.80753 25.0275 7.29841 22.125 7.29841H20.6566C20.6116 7.29686 20.5665 7.29686 20.5122 7.29686H14.4525V35.9022H31.7485V30.4121C31.7485 25.1579 30.0504 21.6267 25.6515 20.073ZM27.8293 34.3267H24.7109V24.7792H21.1083V34.3376H18.3531V8.72332H21.1843C22.2445 8.72332 23.8525 8.96081 24.9903 10.3733C25.5832 11.0873 25.9464 12.0373 26.0737 12.9934H21.1098V14.4028H26.1187C26.0784 15.3124 25.8937 16.3306 25.0012 17.4125C24.2173 18.3935 22.9274 19.3046 21.1083 19.3046H21.0788V20.7311C25.9402 20.7311 27.8324 23.9627 27.8324 29.8782V34.3267H27.8293Z" fill="white"/>
</g>
<defs>
<clipPath id="clip0_222_2329">
<rect width="44" height="44" fill="white"/>
</clipPath>
</defs>
</svg>
