<svg width="60" height="60" viewBox="0 0 60 60" fill="none" xmlns="http://www.w3.org/2000/svg">
    <g clip-path="url(#clip0_282_938)">
        <path d="M29.9989 0C13.4575 0 0 13.4554 0 29.9968C0 46.5404 13.4575 60 29.9989 60C46.5404 60 59.9979 46.5404 59.9979 29.9968C59.9979 13.4554 46.5404 0 29.9989 0ZM29.9989 58.2601C14.4163 58.2601 1.73987 45.5815 1.73987 29.9947C1.73987 14.4142 14.4163 1.73775 29.9989 1.73775C45.5815 1.73775 58.258 14.4142 58.258 29.9947C58.2601 45.5815 45.5815 58.2601 29.9989 58.2601ZM34.9794 27.3722C36.8737 26.5975 38.0252 25.4037 38.7787 24.4978C40.2201 22.8405 40.8107 20.8064 40.8107 18.8845C40.8107 17.3309 40.3831 14.2301 37.6569 12.0944C35.7879 10.6466 34.1285 9.95238 30.1704 9.95238H28.1681C28.1067 9.95026 28.0453 9.95026 27.9712 9.95026H19.7079V48.9576H43.2935V41.4711C43.2935 34.3063 40.9779 29.491 34.9794 27.3722ZM37.949 46.8092H33.6967V33.7898H28.784V46.824H25.027V11.8954H28.8877C30.3334 11.8954 32.5262 12.2193 34.0777 14.1454C34.8862 15.1191 35.3815 16.4144 35.5551 17.7183H28.7861V19.6402H35.6165C35.5614 20.8805 35.3096 22.269 34.0925 23.7443C33.0236 25.082 31.2647 26.3245 28.784 26.3245H28.7438V28.2697C35.3731 28.2697 37.9532 32.6765 37.9532 40.7429V46.8092H37.949Z" fill="#3B4A96"/>
    </g>
    <defs>
    <clipPath id="clip0_282_938">
        <rect width="60" height="60" fill="white"/>
    </clipPath>
    </defs>
</svg>
